<svg width="1440" height="1015" viewBox="0 0 1440 1015" fill="none" xmlns="http://www.w3.org/2000/svg">
<g clip-path="url(#clip0_3591_180)">
<circle cx="391" cy="1031" r="193" fill="#1A1C1E"/>
<circle cx="397.5" cy="1018.5" r="195.5" stroke="black" stroke-width="2"/>
<circle cx="397.5" cy="1003.5" r="195.75" stroke="black" stroke-width="1.5"/>
<circle cx="394.5" cy="991.5" r="196" stroke="black"/>
</g>
<path d="M1687.5 103.5C1687.5 243.206 1568.65 356.5 1422 356.5C1275.35 356.5 1156.5 243.206 1156.5 103.5C1156.5 -36.2056 1275.35 -149.5 1422 -149.5C1568.65 -149.5 1687.5 -36.2056 1687.5 103.5Z" stroke="#092725"/>
<path d="M1687.5 -33.5C1687.5 106.206 1568.65 219.5 1422 219.5C1275.35 219.5 1156.5 106.206 1156.5 -33.5C1156.5 -173.206 1275.35 -286.5 1422 -286.5C1568.65 -286.5 1687.5 -173.206 1687.5 -33.5Z" stroke="#092725"/>
<path d="M200.5 761.5C200.5 901.206 81.6545 1014.5 -65 1014.5C-211.655 1014.5 -330.5 901.206 -330.5 761.5C-330.5 621.794 -211.655 508.5 -65 508.5C81.6545 508.5 200.5 621.794 200.5 761.5Z" stroke="#092725"/>
<path d="M200.5 624.5C200.5 764.206 81.6545 877.5 -65 877.5C-211.655 877.5 -330.5 764.206 -330.5 624.5C-330.5 484.794 -211.655 371.5 -65 371.5C81.6545 371.5 200.5 484.794 200.5 624.5Z" stroke="#092725"/>
<defs>
<clipPath id="clip0_3591_180">
<rect x="396" y="107" width="648" height="845" rx="20" fill="white"/>
</clipPath>
</defs>
</svg>
