<?xml version="1.0" standalone="no"?>
<!DOCTYPE svg PUBLIC "-//W3C//DTD SVG 20010904//EN"
 "http://www.w3.org/TR/2001/REC-SVG-20010904/DTD/svg10.dtd">
<svg version="1.0" xmlns="http://www.w3.org/2000/svg"
 width="648.000000pt" height="845.000000pt" viewBox="0 0 648.000000 845.000000"
 preserveAspectRatio="xMidYMid meet">

<g transform="translate(0.000000,845.000000) scale(0.100000,-0.100000)"
fill="#000000" stroke="none">
<path d="M109 8427 c-24 -13 -57 -43 -74 -66 l-30 -43 -3 -4071 c-2 -2869 0
-4083 8 -4109 14 -50 56 -97 105 -119 39 -18 154 -19 3126 -19 l3086 0 44 23
c24 13 58 43 74 66 l30 43 0 4093 0 4093 -30 43 c-16 23 -50 53 -74 66 l-44
23 -3087 0 -3087 0 -44 -23z m6246 -6 c48 -22 79 -54 100 -103 13 -34 15 -455
15 -4093 0 -3638 -2 -4059 -15 -4093 -21 -49 -52 -81 -100 -103 -39 -18 -123
-19 -2242 -19 l-2202 0 -11 43 c-95 368 -255 659 -504 916 -173 177 -335 296
-551 401 -218 107 -445 169 -698 192 l-137 12 0 3353 c0 3004 2 3358 15 3391
21 49 52 81 100 103 39 18 147 19 3115 19 2968 0 3076 -1 3115 -19z m-6145
-6876 c610 -71 1142 -417 1458 -948 53 -89 142 -275 142 -295 0 -4 -22 34 -49
85 -246 463 -647 805 -1131 963 -176 58 -412 100 -562 100 l-58 0 0 55 0 55
38 0 c20 0 93 -7 162 -15z m77 -130 c709 -101 1304 -581 1556 -1255 49 -132
53 -150 33 -150 -9 0 -19 8 -23 18 -23 68 -94 217 -143 299 -198 336 -487 603
-835 773 -245 120 -568 200 -807 200 l-58 0 0 65 0 65 88 0 c48 0 133 -7 189
-15z m-78 -145 c653 -69 1226 -456 1525 -1031 35 -68 74 -148 85 -176 l21 -53
-68 0 -69 0 -24 52 c-132 284 -389 575 -670 760 -269 177 -587 285 -921 313
l-78 7 0 69 0 69 53 0 c28 0 94 -5 146 -10z m1621 -1015 c0 -5 -5 -3 -10 5 -5
8 -10 20 -10 25 0 6 5 3 10 -5 5 -8 10 -19 10 -25z"/>
</g>
</svg>
